<?xml version="1.0" encoding="UTF-8" standalone="no"?>
<!-- Created with Inkscape (http://www.inkscape.org/) -->

<svg
   xmlns:dc="http://purl.org/dc/elements/1.1/"
   xmlns:cc="http://creativecommons.org/ns#"
   xmlns:rdf="http://www.w3.org/1999/02/22-rdf-syntax-ns#"
   xmlns:svg="http://www.w3.org/2000/svg"
   xmlns="http://www.w3.org/2000/svg"
   xmlns:sodipodi="http://sodipodi.sourceforge.net/DTD/sodipodi-0.dtd"
   xmlns:inkscape="http://www.inkscape.org/namespaces/inkscape"
   width="200"
   height="50"
   id="svg2"
   version="1.1"
   inkscape:version="0.48.2 r9819"
   sodipodi:docname="New document 1">
  <defs
     id="defs4">
    <filter
       inkscape:collect="always"
       id="filter3888"
       x="-0.035293073"
       width="1.0705861"
       y="-0.20003355"
       height="1.4000671">
      <feGaussianBlur
         inkscape:collect="always"
         stdDeviation="4.2622819"
         id="feGaussianBlur3890" />
    </filter>
    <filter
       inkscape:collect="always"
       id="filter3942"
       x="-0.035300599"
       width="1.0706012"
       y="-0.19979213"
       height="1.3995843">
      <feGaussianBlur
         inkscape:collect="always"
         stdDeviation="4.2434262"
         id="feGaussianBlur3944" />
    </filter>
    <filter
       inkscape:collect="always"
       id="filter4019"
       x="-0.035282413"
       width="1.0705648"
       y="-0.20037667"
       height="1.4007533">
      <feGaussianBlur
         inkscape:collect="always"
         stdDeviation="4.2591569"
         id="feGaussianBlur4021" />
    </filter>
    <filter
       inkscape:collect="always"
       id="filter4055"
       x="-0.028300231"
       width="1.0566005"
       y="-0.16017179"
       height="1.3203436">
      <feGaussianBlur
         inkscape:collect="always"
         stdDeviation="3.4019235"
         id="feGaussianBlur4057" />
    </filter>
    <mask
       maskUnits="userSpaceOnUse"
       id="mask4061">
      <path
         inkscape:connector-curvature="0"
         id="path4063"
         d="m 8.5044643,998.39803 c -0.7889569,0 -1.738742,0.0156 -3.0312499,0.71872 -1.292508,0.70858 -2.78125,2.85895 -2.78125,4.71865 l 0,4.875 c 0,1.444 0.885037,3.1114 1.7812499,3.8751 0.896213,0.7637 1.606213,0.9563 2.125,1.0938 1.0375731,0.2748 1.572806,0.2187 1.84375,0.2187 l 2.1249997,0 0,2.2812 -2.2187498,0 c -0.8650889,0 -1.9927889,0.1046 -3.2499998,0.9687 -1.2572111,0.8641 -2.25,2.8026 -2.25,4.3126 l 0,5.4062 c 0,0.7946 0.2217019,2.0363 1.0624999,3.125 0.8407981,1.0889 2.06933,1.6321 2.8124999,1.8126 1.4863401,0.3609 1.7590171,0.1561 1.5625001,0.1561 l 20.1249997,0 0,1.7189 -2.218751,0 c -0.865089,0 -2.057306,0.1186 -3.34375,1.0625 -1.286443,0.9435 -2.124999,2.8644 -2.124999,4.2186 l 0,5.4064 c 0,0.7296 0.153307,1.8645 0.937499,2.9687 0.784197,1.104 2.058938,1.7654 2.84375,1.9688 1.569626,0.4067 1.821517,0.1561 1.625,0.1561 l 30.468751,0 c 0.17621,0 0.397154,0.078 1.249999,-0.062 0.426423,-0.07 1.105614,-0.1588 2.125,-0.875 1.019387,-0.7164 2.062501,-2.6029 2.062501,-4 l 0,-4.7812 c 0.469366,-0.165 1.019042,-0.3702 1.718749,-1.0313 0.787643,-0.7442 1.5625,-2.2575 1.5625,-3.625 l 0,-0.1875 c 0.627147,0.4936 1.285244,0.8977 1.78125,1.0313 1.759508,0.4738 1.778929,0.1562 1.78125,0.1562 l 8.96875,0 c -0.581133,1.0744 -0.968749,2.293 -0.968749,3.625 0,2.7694 1.698245,5.3236 3.46875,6.625 1.770503,1.3014 3.59761,1.889 5.374999,2.3126 3.554778,0.8467 7.10346,0.8749 9.187501,0.8749 1.70239,0 3.251409,-0.2532 5.499996,-0.8749 0.86957,-0.2406 1.83575,-0.5639 2.78125,-0.9376 1.78118,1.0799 3.95877,1.7499 6.5,1.7499 l 8.9375,0 c 2.59029,0 5.47052,-0.6626 8.09375,-2.6249 0.67692,-0.5063 1.33275,-1.1078 1.90625,-1.8124 0.94728,0.7229 1.95113,1.3581 2.96875,1.8438 3.97005,1.894 8.52763,2.6561 12.96875,2.6561 2.54923,0 4.63218,-0.4427 6.40626,-0.9688 0.82272,0.5494 1.70115,0.9062 2.84373,0.9062 l 18.84376,0 c 1.10364,0 2.7175,-0.5033 3.75,-1.6249 0.41415,-0.4499 0.60593,-0.9532 0.8125,-1.4374 0.25615,0.1389 0.49249,0.3457 0.75001,0.4688 3.97004,1.894 8.52762,2.6561 12.96874,2.6561 2.54922,0 4.63217,-0.4427 6.40625,-0.9688 0.82272,0.5494 1.70115,0.9062 2.84375,0.9062 l 18.84375,0 c 0.2994,0 0.6802,-0.142 1.03126,-0.2187 0.4581,0.114 0.91681,0.2187 1.40623,0.2187 l 23.62501,0 c 1.16205,0 2.74418,-0.3713 3.93749,-1.4998 0.48634,-0.4599 0.76792,-1.0168 1.03126,-1.5625 1.46861,0.7299 2.96737,1.32 4.5,1.7187 5.18832,1.3494 10.62792,1.4062 13.875,1.4062 l 3.49999,0 c 6.64293,0 11.29518,-1.3422 14.50002,-3.3436 3.20481,-2.0017 4.8061,-4.7979 5.34374,-5.9376 a 4.7872795,4.7872795 0 0 0 0.18749,-0.5313 c 0.27104,-0.8131 0.25342,-1.2846 0.25001,-1.7812 0.2031,-0.5783 0.31249,-1.1686 0.31249,-1.6563 l 0,-0.5936 c 0,-2.8314 -1.44214,-5.3107 -3.12499,-6.9377 -1.68286,-1.6269 -3.62447,-2.6836 -5.68751,-3.5313 -4.12604,-1.6952 -8.76598,-2.4687 -12.90624,-2.4687 l -6.0625,0 c -1.24792,0 -5.61031,0.066 -10.40625,1.4062 -0.56877,0.1591 -1.14136,0.4254 -1.71876,0.6251 0.64951,-0.8249 1.12152,-1.5601 1.34375,-2.0313 a 4.7872795,4.7872795 0 0 0 0.18751,-0.5312 c 0.26171,-0.7851 0.24555,-1.2323 0.24999,-1.7188 0.21807,-0.5812 0.34376,-1.1833 0.34376,-1.7187 l 0,-0.5937 c 0,-2.8312 -1.44214,-5.3107 -3.125,-6.9375 -1.68287,-1.6271 -3.62447,-2.6838 -5.6875,-3.5313 -4.12606,-1.6952 -8.76599,-2.4687 -12.90626,-2.4687 l -6.09373,0 c -1.24794,0 -5.58566,0.064 -10.37501,1.4062 -2.39468,0.6712 -4.93524,1.6333 -7.1875,3.4688 -0.91084,0.7423 -1.64603,1.8313 -2.34375,2.9375 l 0,-9.5625 c 0,-2.1942 -1.30783,-3.56266 -2.3125,-4.21878 -1.00468,-0.65612 -1.97987,-0.87499 -2.96875,-0.87499 l -18.375,0 c -1.4528,0 -2.89801,0.92291 -3.93751,2.15637 -0.33242,-0.4407 -0.68671,-0.88736 -1.06249,-1.15634 -1.04837,-0.75057 -2.13612,-1.00003 -3.12501,-1.00003 l -18.78123,0 c -1.20219,0 -3.05137,0.62771 -4.09375,1.90627 -1.04238,1.2783 -1.18751,2.6015 -1.18751,3.4999 l 0,1.5627 c -4.69981,0.1857 -7.91792,1.081 -9,1.4686 -0.0216,0.016 -0.10499,0.023 -0.125,0.031 l 0,0.031 c -1.13966,0.3871 -2.96998,1.0898 -5.06251,2.7188 -0.98146,0.764 -2.00299,1.8879 -2.875,3.1875 l 0,-9.3126 c 0,-1.8825 -1.07663,-3.3431 -2.125,-4.09379 -1.04837,-0.75057 -2.13611,-0.99988 -3.12499,-0.99988 l -18.78126,0 c -1.20218,0 -3.05137,0.62771 -4.09374,1.90627 -1.04239,1.2783 -1.1875,2.6015 -1.1875,3.4999 l 0,1.5625 c -4.69981,0.1859 -7.917921,1.0812 -9.000001,1.4688 -0.0216,0.016 -0.104987,0.023 -0.125004,0.031 l 0,0.031 c -1.139649,0.3871 -2.969979,1.0898 -5.0625,2.7188 -0.991549,0.7718 -2.029383,1.9004 -2.906249,3.2186 l 0,-2.375 c 0,-1.4548 -0.460649,-2.4534 -1.09375,-3.2499 l 0,-3.5313 c 0,-1.2718 -0.71775,-3.1618 -2.000001,-4.15625 -1.282251,-0.99457 -2.528075,-1.12507 -3.374999,-1.12507 l -10.0625,0 c -1.63163,0 -4.011676,0.91417 -4.84375,3.34382 -0.311547,-0.7017 -0.675853,-1.4373 -1.34375,-2.00004 -1.571322,-1.32396 -3.108958,-1.34378 -3.96875,-1.34378 l -52.5312495,0 z M 180.50446,1011.9918 c 0.13127,0.083 0.29046,0.2879 0.40625,0.3437 1.0517,0.5071 1.80904,0.5625 2.53125,0.5625 l 0.62499,0 0,4.5624 -0.46875,0 c -0.17607,0 -0.37685,0.1296 -0.5625,0.1564 -0.57257,-0.2766 -1.15542,-0.4689 -1.71875,-0.4689 l -0.81249,0 0,-5.1561 z m 64.65625,18.1249 c -0.1097,0.1563 -0.24073,0.2743 -0.34376,0.4376 l 0,-0.3125 c 0.10831,-0.042 0.23756,-0.081 0.34376,-0.1249 z m -26.87501,0.875 c 1.24011,0.2637 2.35783,0.3355 3.56251,0.4688 l 0,3.5 -0.46875,0 c -0.17388,0 -0.37723,0.1594 -0.5625,0.1875 -0.57692,-0.2806 -1.15077,-0.5001 -1.71875,-0.5001 l -0.81251,0 0,-3.6562 z m -96.40624,0.9687 2.75,0 c -0.0362,0.081 -0.0594,0.1675 -0.0937,0.2501 l -2.0625,0 c -0.18729,0 -0.34795,0.1014 -0.53125,0.1249 -0.0156,-0.1249 -0.0416,-0.2498 -0.0625,-0.3752 z m -4.3125,4.4689 c -0.0613,0.2941 -0.1875,0.576 -0.1875,0.875 0,-0.7954 0.0154,-0.3884 0.0312,-0.4688 0.016,-0.081 0.0401,-0.1833 0.15625,-0.4062 z"
         style="font-size:32px;font-style:normal;font-variant:normal;font-weight:900;font-stretch:normal;line-height:125%;letter-spacing:0px;word-spacing:0px;fill:#ffff00;fill-opacity:1;stroke:#000000;stroke-width:0.5;stroke-miterlimit:4;stroke-dasharray:none;font-family:Blackoak Std;-inkscape-font-specification:Blackoak Std Heavy" />
    </mask>
    <mask
       maskUnits="userSpaceOnUse"
       id="mask4067">
      <path
         inkscape:connector-curvature="0"
         id="path4069"
         d="m 8.5044643,998.39803 c -0.7889569,0 -1.738742,0.0156 -3.0312499,0.71872 -1.292508,0.70858 -2.78125,2.85895 -2.78125,4.71865 l 0,4.875 c 0,1.444 0.885037,3.1114 1.7812499,3.8751 0.896213,0.7637 1.606213,0.9563 2.125,1.0938 1.0375731,0.2748 1.572806,0.2187 1.84375,0.2187 l 2.1249997,0 0,2.2812 -2.2187498,0 c -0.8650889,0 -1.9927889,0.1046 -3.2499998,0.9687 -1.2572111,0.8641 -2.25,2.8026 -2.25,4.3126 l 0,5.4062 c 0,0.7946 0.2217019,2.0363 1.0624999,3.125 0.8407981,1.0889 2.06933,1.6321 2.8124999,1.8126 1.4863401,0.3609 1.7590171,0.1561 1.5625001,0.1561 l 20.1249997,0 0,1.7189 -2.218751,0 c -0.865089,0 -2.057306,0.1186 -3.34375,1.0625 -1.286443,0.9435 -2.124999,2.8644 -2.124999,4.2186 l 0,5.4064 c 0,0.7296 0.153307,1.8645 0.937499,2.9687 0.784197,1.104 2.058938,1.7654 2.84375,1.9688 1.569626,0.4067 1.821517,0.1561 1.625,0.1561 l 30.468751,0 c 0.17621,0 0.397154,0.078 1.249999,-0.062 0.426423,-0.07 1.105614,-0.1588 2.125,-0.875 1.019387,-0.7164 2.062501,-2.6029 2.062501,-4 l 0,-4.7812 c 0.469366,-0.165 1.019042,-0.3702 1.718749,-1.0313 0.787643,-0.7442 1.5625,-2.2575 1.5625,-3.625 l 0,-0.1875 c 0.627147,0.4936 1.285244,0.8977 1.78125,1.0313 1.759508,0.4738 1.778929,0.1562 1.78125,0.1562 l 8.96875,0 c -0.581133,1.0744 -0.968749,2.293 -0.968749,3.625 0,2.7694 1.698245,5.3236 3.46875,6.625 1.770503,1.3014 3.59761,1.889 5.374999,2.3126 3.554778,0.8467 7.10346,0.8749 9.187501,0.8749 1.70239,0 3.251409,-0.2532 5.499996,-0.8749 0.86957,-0.2406 1.83575,-0.5639 2.78125,-0.9376 1.78118,1.0799 3.95877,1.7499 6.5,1.7499 l 8.9375,0 c 2.59029,0 5.47052,-0.6626 8.09375,-2.6249 0.67692,-0.5063 1.33275,-1.1078 1.90625,-1.8124 0.94728,0.7229 1.95113,1.3581 2.96875,1.8438 3.97005,1.894 8.52763,2.6561 12.96875,2.6561 2.54923,0 4.63218,-0.4427 6.40626,-0.9688 0.82272,0.5494 1.70115,0.9062 2.84373,0.9062 l 18.84376,0 c 1.10364,0 2.7175,-0.5033 3.75,-1.6249 0.41415,-0.4499 0.60593,-0.9532 0.8125,-1.4374 0.25615,0.1389 0.49249,0.3457 0.75001,0.4688 3.97004,1.894 8.52762,2.6561 12.96874,2.6561 2.54922,0 4.63217,-0.4427 6.40625,-0.9688 0.82272,0.5494 1.70115,0.9062 2.84375,0.9062 l 18.84375,0 c 0.2994,0 0.6802,-0.142 1.03126,-0.2187 0.4581,0.114 0.91681,0.2187 1.40623,0.2187 l 23.62501,0 c 1.16205,0 2.74418,-0.3713 3.93749,-1.4998 0.48634,-0.4599 0.76792,-1.0168 1.03126,-1.5625 1.46861,0.7299 2.96737,1.32 4.5,1.7187 5.18832,1.3494 10.62792,1.4062 13.875,1.4062 l 3.49999,0 c 6.64293,0 11.29518,-1.3422 14.50002,-3.3436 3.20481,-2.0017 4.8061,-4.7979 5.34374,-5.9376 a 4.7872795,4.7872795 0 0 0 0.18749,-0.5313 c 0.27104,-0.8131 0.25342,-1.2846 0.25001,-1.7812 0.2031,-0.5783 0.31249,-1.1686 0.31249,-1.6563 l 0,-0.5936 c 0,-2.8314 -1.44214,-5.3107 -3.12499,-6.9377 -1.68286,-1.6269 -3.62447,-2.6836 -5.68751,-3.5313 -4.12604,-1.6952 -8.76598,-2.4687 -12.90624,-2.4687 l -6.0625,0 c -1.24792,0 -5.61031,0.066 -10.40625,1.4062 -0.56877,0.1591 -1.14136,0.4254 -1.71876,0.6251 0.64951,-0.8249 1.12152,-1.5601 1.34375,-2.0313 a 4.7872795,4.7872795 0 0 0 0.18751,-0.5312 c 0.26171,-0.7851 0.24555,-1.2323 0.24999,-1.7188 0.21807,-0.5812 0.34376,-1.1833 0.34376,-1.7187 l 0,-0.5937 c 0,-2.8312 -1.44214,-5.3107 -3.125,-6.9375 -1.68287,-1.6271 -3.62447,-2.6838 -5.6875,-3.5313 -4.12606,-1.6952 -8.76599,-2.4687 -12.90626,-2.4687 l -6.09373,0 c -1.24794,0 -5.58566,0.064 -10.37501,1.4062 -2.39468,0.6712 -4.93524,1.6333 -7.1875,3.4688 -0.91084,0.7423 -1.64603,1.8313 -2.34375,2.9375 l 0,-9.5625 c 0,-2.1942 -1.30783,-3.56266 -2.3125,-4.21878 -1.00468,-0.65612 -1.97987,-0.87499 -2.96875,-0.87499 l -18.375,0 c -1.4528,0 -2.89801,0.92291 -3.93751,2.15637 -0.33242,-0.4407 -0.68671,-0.88736 -1.06249,-1.15634 -1.04837,-0.75057 -2.13612,-1.00003 -3.12501,-1.00003 l -18.78123,0 c -1.20219,0 -3.05137,0.62771 -4.09375,1.90627 -1.04238,1.2783 -1.18751,2.6015 -1.18751,3.4999 l 0,1.5627 c -4.69981,0.1857 -7.91792,1.081 -9,1.4686 -0.0216,0.016 -0.10499,0.023 -0.125,0.031 l 0,0.031 c -1.13966,0.3871 -2.96998,1.0898 -5.06251,2.7188 -0.98146,0.764 -2.00299,1.8879 -2.875,3.1875 l 0,-9.3126 c 0,-1.8825 -1.07663,-3.3431 -2.125,-4.09379 -1.04837,-0.75057 -2.13611,-0.99988 -3.12499,-0.99988 l -18.78126,0 c -1.20218,0 -3.05137,0.62771 -4.09374,1.90627 -1.04239,1.2783 -1.1875,2.6015 -1.1875,3.4999 l 0,1.5625 c -4.69981,0.1859 -7.917921,1.0812 -9.000001,1.4688 -0.0216,0.016 -0.104987,0.023 -0.125004,0.031 l 0,0.031 c -1.139649,0.3871 -2.969979,1.0898 -5.0625,2.7188 -0.991549,0.7718 -2.029383,1.9004 -2.906249,3.2186 l 0,-2.375 c 0,-1.4548 -0.460649,-2.4534 -1.09375,-3.2499 l 0,-3.5313 c 0,-1.2718 -0.71775,-3.1618 -2.000001,-4.15625 -1.282251,-0.99457 -2.528075,-1.12507 -3.374999,-1.12507 l -10.0625,0 c -1.63163,0 -4.011676,0.91417 -4.84375,3.34382 -0.311547,-0.7017 -0.675853,-1.4373 -1.34375,-2.00004 -1.571322,-1.32396 -3.108958,-1.34378 -3.96875,-1.34378 l -52.5312495,0 z M 180.50446,1011.9918 c 0.13127,0.083 0.29046,0.2879 0.40625,0.3437 1.0517,0.5071 1.80904,0.5625 2.53125,0.5625 l 0.62499,0 0,4.5624 -0.46875,0 c -0.17607,0 -0.37685,0.1296 -0.5625,0.1564 -0.57257,-0.2766 -1.15542,-0.4689 -1.71875,-0.4689 l -0.81249,0 0,-5.1561 z m 64.65625,18.1249 c -0.1097,0.1563 -0.24073,0.2743 -0.34376,0.4376 l 0,-0.3125 c 0.10831,-0.042 0.23756,-0.081 0.34376,-0.1249 z m -26.87501,0.875 c 1.24011,0.2637 2.35783,0.3355 3.56251,0.4688 l 0,3.5 -0.46875,0 c -0.17388,0 -0.37723,0.1594 -0.5625,0.1875 -0.57692,-0.2806 -1.15077,-0.5001 -1.71875,-0.5001 l -0.81251,0 0,-3.6562 z m -96.40624,0.9687 2.75,0 c -0.0362,0.081 -0.0594,0.1675 -0.0937,0.2501 l -2.0625,0 c -0.18729,0 -0.34795,0.1014 -0.53125,0.1249 -0.0156,-0.1249 -0.0416,-0.2498 -0.0625,-0.3752 z m -4.3125,4.4689 c -0.0613,0.2941 -0.1875,0.576 -0.1875,0.875 0,-0.7954 0.0154,-0.3884 0.0312,-0.4688 0.016,-0.081 0.0401,-0.1833 0.15625,-0.4062 z"
         style="font-size:32px;font-style:normal;font-variant:normal;font-weight:900;font-stretch:normal;line-height:125%;letter-spacing:0px;word-spacing:0px;fill:#ffff00;fill-opacity:1;stroke:#000000;stroke-width:0.5;stroke-miterlimit:4;stroke-dasharray:none;font-family:Blackoak Std;-inkscape-font-specification:Blackoak Std Heavy" />
    </mask>
  </defs>
  <sodipodi:namedview
     id="base"
     pagecolor="#ffffff"
     bordercolor="#666666"
     borderopacity="1.0"
     inkscape:pageopacity="0.0"
     inkscape:pageshadow="2"
     inkscape:zoom="2.8"
     inkscape:cx="151.24502"
     inkscape:cy="45.179676"
     inkscape:document-units="px"
     inkscape:current-layer="layer1"
     showgrid="false"
     inkscape:window-width="1440"
     inkscape:window-height="771"
     inkscape:window-x="0"
     inkscape:window-y="0"
     inkscape:window-maximized="1" />
  <metadata
     id="metadata7">
    <rdf:RDF>
      <cc:Work
         rdf:about="">
        <dc:format>image/svg+xml</dc:format>
        <dc:type
           rdf:resource="http://purl.org/dc/dcmitype/StillImage" />
        <dc:title></dc:title>
      </cc:Work>
    </rdf:RDF>
  </metadata>
  <g
     inkscape:label="Layer 1"
     inkscape:groupmode="layer"
     id="layer1"
     transform="translate(0,-1002.3622)">
    <path
       style="font-size:32px;font-style:normal;font-variant:normal;font-weight:900;font-stretch:normal;line-height:125%;letter-spacing:0px;word-spacing:0px;fill:#ffff00;fill-opacity:1;stroke:#000000;stroke-width:0.5;font-family:Blackoak Std;-inkscape-font-specification:Blackoak Std Heavy;stroke-miterlimit:4;stroke-dasharray:none"
       d="m 9.4233021,1012.4152 c -0.5084497,0 -1.1205464,0.01 -1.9535137,0.4604 -0.8329673,0.4539 -1.7923992,1.8314 -1.7923992,3.0227 l 0,3.1228 c 0,0.925 0.5703693,1.9931 1.147941,2.4823 0.5775718,0.4892 1.0351371,0.6126 1.3694736,0.7007 0.6686724,0.176 1.0136076,0.1401 1.1882197,0.1401 l 1.3694735,0 0,1.4613 -1.4298915,0 c -0.5575136,0 -1.2842691,0.067 -2.0944889,0.6205 -0.8102199,0.5535 -1.4500308,1.7953 -1.4500308,2.7626 l 0,3.4631 c 0,0.509 0.1428776,1.3044 0.6847367,2.0018 0.5418592,0.6975 1.3335966,1.0455 1.8125385,1.1611 0.957884,0.2312 1.1336129,0.1 1.0069659,0.1 l 12.9697201,0 0,1.1011 -1.429892,0 c -0.557514,0 -1.325848,0.076 -2.154907,0.6806 -0.829059,0.6044 -1.369473,1.8349 -1.369473,2.7024 l 0,3.4632 c 0,0.4674 0.0988,1.1944 0.604179,1.9017 0.505382,0.7072 1.326899,1.1309 1.832678,1.2612 1.011558,0.2605 1.173891,0.1 1.047244,0.1 l 19.635835,0 c 0.11356,0 0.255949,0.05 0.805572,-0.04 0.274812,-0.045 0.712522,-0.1017 1.369474,-0.5605 0.656952,-0.4589 1.329195,-1.6674 1.329195,-2.5623 l 0,-3.0628 c 0.302487,-0.1057 0.65673,-0.2371 1.107662,-0.6606 0.507603,-0.4767 1.006966,-1.4461 1.006966,-2.3221 l 0,-0.1201 c 0.40417,0.3162 0.828286,0.575 1.147941,0.6606 1.133929,0.3035 1.146445,0.1001 1.147941,0.1001 l 5.779984,0 c -0.374516,0.6882 -0.624318,1.4688 -0.624318,2.3221 0,1.774 1.094448,3.4102 2.235464,4.2438 1.141015,0.8337 2.318509,1.2101 3.463962,1.4814 2.290906,0.5424 4.577883,0.5605 5.92096,0.5605 1.097119,0 2.095397,-0.1622 3.544517,-0.5605 0.560401,-0.1541 1.183064,-0.3612 1.792399,-0.6006 1.147896,0.6918 2.551262,1.121 4.188978,1.121 l 5.759845,0 c 1.669333,0 3.525521,-0.4245 5.216083,-1.6815 0.436246,-0.3243 0.858901,-0.7096 1.228498,-1.161 0.610483,0.4631 1.257422,0.87 1.913235,1.1811 2.558531,1.2133 5.495701,1.7015 8.357817,1.7015 1.642872,0 2.985244,-0.2836 4.128564,-0.6206 0.53021,0.3519 1.09632,0.5805 1.83267,0.5805 l 12.14401,0 c 0.71125,0 1.75132,-0.3224 2.41672,-1.0409 0.2669,-0.2882 0.3905,-0.6106 0.52362,-0.9208 0.16508,0.089 0.31739,0.2215 0.48335,0.3003 2.55853,1.2133 5.4957,1.7015 8.35781,1.7015 1.64287,0 2.98524,-0.2836 4.12856,-0.6206 0.53021,0.3519 1.09632,0.5805 1.83268,0.5805 l 12.14401,0 c 0.19295,0 0.43836,-0.091 0.6646,-0.1401 0.29523,0.073 0.59085,0.1401 0.90626,0.1401 l 15.22533,0 c 0.74889,0 1.76851,-0.2379 2.53755,-0.9608 0.31342,-0.2946 0.49489,-0.6513 0.6646,-1.0009 0.94646,0.4676 1.91235,0.8456 2.90006,1.101 3.34366,0.8644 6.84925,0.9008 8.94186,0.9008 l 2.2556,0 c 4.28109,0 7.27927,-0.8598 9.34465,-2.1419 2.06537,-1.2822 3.09733,-3.0734 3.44382,-3.8035 a 3.0852013,3.0666395 0 0 0 0.12083,-0.3403 c 0.17467,-0.5209 0.16332,-0.8229 0.16112,-1.141 0.13089,-0.3705 0.20139,-0.7486 0.20139,-1.061 l 0,-0.3803 c 0,-1.8137 -0.9294,-3.4019 -2.01393,-4.4441 -1.08453,-1.0422 -2.33582,-1.7191 -3.66536,-2.2621 -2.65906,-1.0859 -5.64931,-1.5814 -8.31753,-1.5814 l -3.90703,0 c -0.80423,0 -3.61561,0.042 -6.70639,0.9008 -0.36655,0.1019 -0.73556,0.2725 -1.10767,0.4004 0.41858,-0.5284 0.72277,-0.9994 0.86599,-1.3012 a 3.0852013,3.0666395 0 0 0 0.12084,-0.3403 c 0.16866,-0.5029 0.15825,-0.7894 0.16111,-1.101 0.14054,-0.3723 0.22154,-0.758 0.22154,-1.101 l 0,-0.3803 c 0,-1.8136 -0.9294,-3.4019 -2.01393,-4.444 -1.08454,-1.0423 -2.33582,-1.7192 -3.66536,-2.2621 -2.65907,-1.0859 -5.64931,-1.5814 -8.31754,-1.5814 l -3.92716,0 c -0.80424,0 -3.59972,0.041 -6.68626,0.9008 -1.54327,0.4299 -3.18055,1.0462 -4.63204,2.222 -0.587,0.4755 -1.0608,1.1731 -1.51045,1.8817 l 0,-6.1255 c 0,-1.4056 -0.84284,-2.2822 -1.49031,-2.7025 -0.64747,-0.4203 -1.27594,-0.5605 -1.91323,-0.5605 l -11.84192,0 c -0.93627,0 -1.86765,0.5912 -2.53756,1.3813 -0.21423,-0.2823 -0.44256,-0.5684 -0.68473,-0.7407 -0.67563,-0.4808 -1.37664,-0.6406 -2.01394,-0.6406 l -12.10372,0 c -0.77476,0 -1.96648,0.4021 -2.63825,1.2211 -0.67177,0.8189 -0.7653,1.6665 -0.7653,2.242 l 0,1.001 c -3.02883,0.119 -5.102767,0.6925 -5.800122,0.9408 -0.01392,0.01 -0.06766,0.015 -0.08056,0.02 l 0,0.02 c -0.734457,0.248 -1.914028,0.6981 -3.26257,1.7416 -0.63251,0.4894 -1.290849,1.2094 -1.852817,2.0419 l 0,-5.9655 c 0,-1.2059 -0.693843,-2.1415 -1.369474,-2.6224 -0.67563,-0.4808 -1.376633,-0.6405 -2.013931,-0.6405 l -12.10373,0 c -0.774755,0 -1.96648,0.4021 -2.63825,1.2211 -0.671771,0.8189 -0.765294,1.6665 -0.765294,2.242 l 0,1.0009 c -3.028831,0.1191 -5.102766,0.6926 -5.800121,0.9409 -0.01392,0.01 -0.06766,0.015 -0.08056,0.02 l 0,0.02 c -0.734456,0.248 -1.914027,0.6981 -3.262569,1.7416 -0.639012,0.4944 -1.307853,1.2174 -1.872956,2.0618 l 0,-1.5214 c 0,-0.9319 -0.296869,-1.5716 -0.704876,-2.0818 l 0,-2.2621 c 0,-0.8147 -0.46256,-2.0254 -1.288917,-2.6624 -0.826357,-0.6371 -1.629239,-0.7207 -2.175046,-0.7207 l -6.48486,0 c -1.051517,0 -2.585357,0.5856 -3.121594,2.142 -0.200779,-0.4495 -0.435559,-0.9207 -0.865991,-1.2812 -1.012651,-0.8481 -2.003593,-0.8608 -2.557693,-0.8608 l -33.8541919,0 z m 110.8467979,8.7079 c 0.0846,0.053 0.18719,0.1844 0.26181,0.2202 0.67778,0.3248 1.16585,0.3603 1.63129,0.3603 l 0.40278,0 0,2.9226 -0.30209,0 c -0.11347,0 -0.24287,0.083 -0.36251,0.1002 -0.369,-0.1772 -0.74462,-0.3004 -1.10766,-0.3004 l -0.52362,0 0,-3.3029 z m 41.66825,11.6105 c -0.0707,0.1001 -0.15514,0.1757 -0.22154,0.2803 l 0,-0.2002 c 0.0698,-0.027 0.1531,-0.052 0.22154,-0.08 z m -17.31982,0.5605 c 0.7992,0.1689 1.51952,0.2149 2.29589,0.3003 l 0,2.242 -0.30209,0 c -0.11206,0 -0.24311,0.1021 -0.36251,0.1201 -0.3718,-0.1797 -0.74162,-0.3203 -1.10766,-0.3203 l -0.52363,0 0,-2.3421 z m -62.129788,0.6205 1.77226,0 c -0.02333,0.052 -0.03828,0.1073 -0.06039,0.1602 l -1.329195,0 c -0.120701,0 -0.224239,0.065 -0.342368,0.08 -0.01005,-0.08 -0.02681,-0.16 -0.04028,-0.2403 z m -2.779226,2.8627 c -0.03951,0.1884 -0.120836,0.369 -0.120836,0.5605 0,-0.5095 0.0099,-0.2488 0.02011,-0.3003 0.01031,-0.052 0.02584,-0.1174 0.100697,-0.2602 z"
       id="path3087"
       inkscape:connector-curvature="0" />
    <path
       style="font-size:32px;font-style:normal;font-variant:normal;font-weight:900;font-stretch:normal;line-height:125%;letter-spacing:0px;word-spacing:0px;fill:#000000;fill-opacity:1;stroke:none;font-family:Blackoak Std;-inkscape-font-specification:Blackoak Std Heavy;filter:url(#filter4055)"
       d="m 7.8794643,998.39791 c -0.660555,0.0361 -1.436869,0.1873 -2.40625,0.71875 -1.292508,0.7086 -2.78125,2.85904 -2.78125,4.71874 l 0,4.875 c 0,1.4439 0.885037,3.1113 1.78125,3.875 0.896213,0.7637 1.606213,0.9563 2.125,1.0938 0.08358,0.022 0.141568,0.044 0.21875,0.062 -0.08602,-0.3486 -0.125,-0.6928 -0.125,-1.0313 l 0,-4.875 c 0,-1.8597 1.488742,-4.0101 2.78125,-4.7187 1.2925077,-0.7087 2.2422927,-0.7188 3.0312497,-0.7188 l 52.53125,0 c 0.859792,0 2.397428,0.019 3.96875,1.3438 0.667898,0.5627 1.032204,1.2983 1.34375,2 0.832075,-2.4297 3.212121,-3.3438 4.84375,-3.3438 l 10.0625,0 c 0.341911,0 0.770662,0.034 1.21875,0.125 -0.278532,-1.0841 -0.915696,-2.2802 -1.84375,-2.99999 -1.282251,-0.99451 -2.528076,-1.125 -3.375,-1.125 l -10.0625,0 c -1.631629,0 -4.011675,0.91404 -4.84375,3.34379 -0.311546,-0.7017 -0.675852,-1.4373 -1.34375,-2.00004 -1.571322,-1.32395 -3.108958,-1.34375 -3.96875,-1.34375 l -52.5312497,0 c -0.197239,0 -0.404815,-0.012 -0.625,0 z m 102.2187457,0 c -1.20218,0 -3.05137,0.62778 -4.09375,1.90629 -1.04238,1.2784 -1.1875,2.6015 -1.1875,3.5 l 0,1.5625 c -4.69981,0.1859 -7.917916,1.0811 -8.999996,1.4687 -0.0216,0.01 -0.10498,0.024 -0.125,0.031 l 0,0.031 c -1.13965,0.3872 -2.96998,1.0898 -5.0625,2.7188 l 0,1.5937 c 0.6331,0.7966 1.09375,1.7953 1.09375,3.25 l 0,2.375 c 0.87687,-1.3182 1.9147,-2.4468 2.90625,-3.2187 2.09252,-1.629 3.92285,-2.3316 5.0625,-2.7188 l 0,-0.031 c 0.02,-0.01 0.1034,-0.023 0.125,-0.031 1.082076,-0.3876 4.300186,-1.2828 8.999996,-1.4687 l 0,-1.5625 c 0,-0.8985 0.14512,-2.2216 1.1875,-3.5 1.04238,-1.2785 2.89157,-1.9063 4.09375,-1.9063 l 18.78125,0 c 0.36513,0 0.73988,0.044 1.125,0.125 -0.28725,-1.4143 -1.13917,-2.5087 -2,-3.12499 -1.04837,-0.75057 -2.13611,-1 -3.125,-1 l -18.78125,0 z m 46.375,0 c -1.20218,0 -3.05137,0.62778 -4.09375,1.90629 -1.04238,1.2784 -1.1875,2.6015 -1.1875,3.5 l 0,1.5625 c -4.69981,0.1859 -7.91792,1.0811 -9,1.4687 -0.0216,0.01 -0.10498,0.024 -0.125,0.031 l 0,0.031 c -0.92805,0.3153 -2.32481,0.8427 -3.9375,1.9063 l 0,8 c 0.872,-1.2995 1.89354,-2.4235 2.875,-3.1875 2.09252,-1.629 3.92285,-2.3316 5.0625,-2.7188 l 0,-0.031 c 0.02,-0.01 0.1034,-0.023 0.125,-0.031 1.08208,-0.3876 4.30019,-1.2828 9,-1.4687 l 0,-1.5625 c 0,-0.8985 0.14512,-2.2216 1.1875,-3.5 1.04238,-1.2785 2.89157,-1.9063 4.09375,-1.9063 l 18.78125,0 c 0.98889,0 2.07663,0.2494 3.125,1 0.37578,0.269 0.73007,0.7156 1.0625,1.1563 1.03949,-1.2334 2.4847,-2.1563 3.9375,-2.1563 l 18.375,0 c 0.39761,0 0.79152,0.04 1.1875,0.125 -0.31308,-1.6326 -1.37207,-2.69703 -2.21875,-3.24999 -1.00468,-0.65615 -1.97986,-0.875 -2.96875,-0.875 l -18.375,0 c -1.4528,0 -2.89801,0.92291 -3.9375,2.15629 -0.33243,-0.4407 -0.68672,-0.88726 -1.0625,-1.15629 -1.04837,-0.75057 -2.13611,-1 -3.125,-1 l -18.78125,0 z m 70.46875,6.84379 c -1.24793,0 -5.58564,0.064 -10.375,1.4062 -1.82761,0.5122 -3.7267,1.2024 -5.53125,2.3125 l 0,8.0938 c 0.69772,-1.1062 1.43291,-2.1952 2.34375,-2.9375 2.25227,-1.8356 4.79282,-2.7976 7.1875,-3.4688 4.78936,-1.3422 9.12707,-1.4062 10.375,-1.4062 l 6.09375,0 c 4.14026,0 8.7802,0.7735 12.90625,2.4687 1.2061,0.4955 2.37309,1.0706 3.46875,1.7813 -0.51115,-0.8618 -1.12641,-1.617 -1.78125,-2.25 -1.68286,-1.627 -3.62447,-2.6837 -5.6875,-3.5313 -4.12605,-1.6952 -8.76599,-2.4687 -12.90625,-2.4687 l -6.09375,0 z m -42.4375,10.75 0,5.1562 0.8125,0 c 0.56332,0 1.14617,0.1921 1.71875,0.4688 0.18563,-0.027 0.38643,-0.1563 0.5625,-0.1563 l 0.46875,0 0,-4.5625 -0.625,0 c -0.72222,0 -1.47954,-0.055 -2.53125,-0.5625 -0.11579,-0.056 -0.27493,-0.2603 -0.40625,-0.3437 z m -176.4374957,0.1875 c -0.823686,0.025 -1.839852,0.1929 -2.96875,0.9687 -1.257211,0.864 -2.25,2.8025 -2.25,4.3125 l 0,5.4063 c 0,0.7945 0.221702,2.0361 1.0625,3.125 0.840798,1.0888 2.06933,1.632 2.8125,1.8125 0.103383,0.025 0.15811,0.043 0.25,0.062 -0.07582,-0.3735 -0.125,-0.7143 -0.125,-1 l 0,-5.4063 c 0,-1.51 0.992789,-3.4485 2.25,-4.3125 1.2572107,-0.864 2.3849107,-0.9687 3.2499997,-0.9687 l 2.21875,0 0,-2.2813 -2.125,0 c -0.270944,0 -0.806177,0.056 -1.84375,-0.2187 -0.518787,-0.1375 -1.2287867,-0.3301 -2.1249997,-1.0938 -0.136598,-0.1164 -0.273266,-0.2518 -0.40625,-0.4062 z m 256.6874957,6.5625 c -0.85048,0 -3.1675,0.056 -6.0625,0.5 -0.0486,0.4082 -0.1239,0.8304 -0.28125,1.25 -0.004,0.4863 0.0117,0.9336 -0.25,1.7187 a 4.7872795,4.7872795 0 0 1 -0.1875,0.5313 c -0.22224,0.471 -0.69425,1.2063 -1.34375,2.0312 0.57739,-0.1997 1.14998,-0.4659 1.71875,-0.625 4.79594,-1.3412 9.15833,-1.4062 10.40625,-1.4062 l 6.0625,0 c 4.14026,0 8.7802,0.7735 12.90625,2.4687 1.2061,0.4955 2.37309,1.0706 3.46875,1.7813 -0.51115,-0.8618 -1.12641,-1.617 -1.78125,-2.25 -1.68286,-1.627 -3.62447,-2.6837 -5.6875,-3.5313 -4.12605,-1.6952 -8.76599,-2.4687 -12.90625,-2.4687 l -6.0625,0 z m -15.59375,11.375 c -0.10619,0.044 -0.23539,0.083 -0.34375,0.125 l 0,0.3125 c 0.10303,-0.1632 0.23412,-0.2812 0.34375,-0.4375 z m -26.875,0.875 0,3.6562 0.8125,0 c 0.56799,0 1.14184,0.2194 1.71875,0.5 0.18527,-0.028 0.38863,-0.1875 0.5625,-0.1875 l 0.46875,0 0,-3.5 c -1.20468,-0.1332 -2.32239,-0.2051 -3.5625,-0.4687 z m -200.562496,0.9687 c -0.632438,0.9504 -1,2.095 -1,3 l 0,5.4063 c 0,0.7296 0.153304,1.8646 0.9375,2.9687 0.784196,1.1041 2.058937,1.7654 2.84375,1.9688 0.143379,0.037 0.221699,0.036 0.34375,0.062 -0.07106,-0.372 -0.125,-0.7218 -0.125,-1 l 0,-5.4063 c 0,-1.3542 0.838556,-3.2752 2.125,-4.2187 1.286444,-0.9438 2.478661,-1.0625 3.34375,-1.0625 l 2.21875,0 0,-1.7188 -10.6875,0 z m 104.156246,0 c 0.0209,0.1253 0.0469,0.2498 0.0625,0.375 0.1833,-0.023 0.34396,-0.125 0.53125,-0.125 l 2.0625,0 c 0.0343,-0.083 0.0575,-0.169 0.0937,-0.25 l -2.75,0 z m -48.968746,4.125 c 0.144346,2.6226 1.747584,5.0079 3.4375,6.25 0.463308,0.3405 0.937096,0.6224 1.40625,0.875 -0.535337,-1.0609 -0.875,-2.2595 -0.875,-3.5 0,-1.332 0.387616,-2.5506 0.96875,-3.625 l -4.9375,0 z m 44.656246,0.3438 c -0.11615,0.2229 -0.14025,0.3252 -0.15625,0.4062 -0.0159,0.08 -0.0312,-0.3267 -0.0312,0.4688 0,-0.299 0.1262,-0.581 0.1875,-0.875 z"
       id="path3917"
       inkscape:connector-curvature="0"
       transform="matrix(0.64445815,0,0,0.64058083,3.9425308,372.86056)"
       mask="url(#mask4061)" />
    <g
       id="g3036"
       style="fill:#ff80b2;stroke:#000000;stroke-width:0.77819005;stroke-miterlimit:4;stroke-dasharray:none"
       transform="matrix(0.64445815,0,0,0.64058083,-2.9623782,385.21462)">
      <path
         d="m 19.214572,983.89791 c -0.544,0 -1.024,0.16 -1.024,0.64 l 0,4.896 c 0,0.384 0.64,0.384 0.96,0.384 l 6.912,0 0,11.87199 -7.008,0 c -0.448,0 -0.704,0.16 -0.704,0.48 l 0,5.408 c 0,0.384 0.32,0.32 0.64,0.32 l 30.464,0 c 0.383999,0 0.672,0 0.672,-0.16 l 0,-5.312 c 0,-0.32 -0.128001,-0.448 -0.384,-0.448 l -7.072,0 0,-3.39199 10.08,0 c 0.287999,0 0.64,-0.064 0.64,-0.288 l 0,-4.32 c 0,-0.48 -0.224001,-0.704 -0.64,-0.704 l -10.24,0 0,-3.648 18.528,0 0,4.576 c 0,0.384 0.224,0.32 0.704,0.32 l 10.72,0 c 0.479999,0 0.48,-0.48 0.48,-0.8 l 0,-8.704 c 0,-0.89599 -0.416001,-1.12 -1.184,-1.12 l -52.544,0"
         style="font-size:32px;font-style:normal;font-variant:normal;font-weight:900;font-stretch:normal;line-height:125%;letter-spacing:0px;word-spacing:0px;fill:#ff80b2;fill-opacity:1;stroke:#000000;stroke-width:0.77819005;font-family:Blackoak Std;-inkscape-font-specification:Blackoak Std Heavy;stroke-miterlimit:4;stroke-dasharray:none"
         id="path2992"
         inkscape:connector-curvature="0" />
      <path
         d="m 93.649572,1003.0019 0,-11.83999 c 0,-0.16 -0.160001,-0.32 -0.416,-0.32 l -18.528,0 c -0.32,0 -0.512,0.22401 -0.512,0.608 l 0,4 c 0,0.224 0.224,0.32 0.576,0.32 l 5.472,0 0,7.23199 -5.664,0 c -0.16,0 -0.384,0.128 -0.384,0.32 l 0,4.128 c 0,0.16 0.128,0.448 0.32,0.448 l 24.576,0 c 0.255999,0 0.416,-0.064 0.416,-0.32 l 0,-4.224 c 0,-0.16 -0.160001,-0.352 -0.416,-0.352 l -5.44,0 m -11.744,-19.10399 c -0.288,0 -0.448,0.16 -0.448,0.288 l 0,4.768 c 0,0.224 0.16,0.256 0.416,0.256 l 10.24,0 c 0.319999,0 0.448,-0.224 0.448,-0.416 l 0,-4.416 c 0,-0.35199 -0.256001,-0.48 -0.608,-0.48 l -10.048,0"
         style="font-size:32px;font-style:normal;font-variant:normal;font-weight:900;font-stretch:normal;line-height:125%;letter-spacing:0px;word-spacing:0px;fill:#ff80b2;fill-opacity:1;stroke:#000000;stroke-width:0.77819005;font-family:Blackoak Std;-inkscape-font-specification:Blackoak Std Heavy;stroke-miterlimit:4;stroke-dasharray:none"
         id="path2994"
         inkscape:connector-curvature="0" />
      <path
         d="m 126.42007,994.07391 c -1.696,-1.43999 -5.536,-3.328 -9.6,-3.328 -5.08799,0 -7.648,0.92801 -8.8,1.344 -1.152,0.384 -6.624,2.65601 -6.624,7.104 0,5.79199 8.44801,8.76799 16.096,8.76799 5.024,0 7.84,-1.728 8.736,-2.368 l 0,1.824 c 0,0.288 0.288,0.48 0.512,0.48 l 18.848,0 c 0.192,0 0.288,-0.128 0.288,-0.288 l 0,-4.48 c 0,-0.32 -0.064,-0.48 -0.224,-0.48 l -5.6,0 0,-18.43199 c 0,-0.16 -0.16,-0.32 -0.448,-0.32 l -18.784,0 c -0.32,0 -0.512,0.19201 -0.512,0.608 l 0,4 c 0,0.192 0.224,0.32 0.576,0.32 l 5.536,0 0,5.248 m -5.12,1.696 c 2.208,0 5.12,0.99201 5.12,3.616 0,2.39999 -2.24,3.35999 -4.704,3.35999 -2.24,0 -4.896,-0.8 -4.896,-3.35999 0,-1.88799 2.08,-3.616 4.48,-3.616"
         style="font-size:32px;font-style:normal;font-variant:normal;font-weight:900;font-stretch:normal;line-height:125%;letter-spacing:0px;word-spacing:0px;fill:#ff80b2;fill-opacity:1;stroke:#000000;stroke-width:0.77819005;font-family:Blackoak Std;-inkscape-font-specification:Blackoak Std Heavy;stroke-miterlimit:4;stroke-dasharray:none"
         id="path2996"
         inkscape:connector-curvature="0" />
      <path
         d="m 172.79507,994.07391 c -1.696,-1.43999 -5.536,-3.328 -9.6,-3.328 -5.08799,0 -7.648,0.92801 -8.8,1.344 -1.152,0.384 -6.624,2.65601 -6.624,7.104 0,5.79199 8.44801,8.76799 16.096,8.76799 5.024,0 7.84,-1.728 8.736,-2.368 l 0,1.824 c 0,0.288 0.288,0.48 0.512,0.48 l 18.848,0 c 0.192,0 0.288,-0.128 0.288,-0.288 l 0,-4.48 c 0,-0.32 -0.064,-0.48 -0.224,-0.48 l -5.6,0 0,-18.43199 c 0,-0.16 -0.16,-0.32 -0.448,-0.32 l -18.784,0 c -0.32,0 -0.512,0.19201 -0.512,0.608 l 0,4 c 0,0.192 0.224,0.32 0.576,0.32 l 5.536,0 0,5.248 m -5.12,1.696 c 2.208,0 5.12,0.99201 5.12,3.616 0,2.39999 -2.24,3.35999 -4.704,3.35999 -2.24,0 -4.896,-0.8 -4.896,-3.35999 0,-1.88799 2.08,-3.616 4.48,-3.616"
         style="font-size:32px;font-style:normal;font-variant:normal;font-weight:900;font-stretch:normal;line-height:125%;letter-spacing:0px;word-spacing:0px;fill:#ff80b2;fill-opacity:1;stroke:#000000;stroke-width:0.77819005;font-family:Blackoak Std;-inkscape-font-specification:Blackoak Std Heavy;stroke-miterlimit:4;stroke-dasharray:none"
         id="path2998"
         inkscape:connector-curvature="0" />
      <path
         d="m 212.96207,1002.9699 0,-18.75199 c 0,-0.16 -0.192,-0.32 -0.48,-0.32 l -18.4,0 c -0.288,0 -0.544,0.19201 -0.544,0.608 l 0,4 c 0,0.192 0.256,0.32 0.608,0.32 l 5.408,0 0,14.14399 -5.248,0 c -0.576,0 -0.672,0.48 -0.672,0.8 l 0,3.424 c 0,0.48 0.448,0.704 0.768,0.704 l 23.616,0 c 0.64,0 0.8,-0.352 0.8,-0.608 l 0,-3.776 c 0,-0.32 -0.128,-0.544 -0.512,-0.544 l -5.344,0"
         style="font-size:32px;font-style:normal;font-variant:normal;font-weight:900;font-stretch:normal;line-height:125%;letter-spacing:0px;word-spacing:0px;fill:#ff80b2;fill-opacity:1;stroke:#000000;stroke-width:0.77819005;font-family:Blackoak Std;-inkscape-font-specification:Blackoak Std Heavy;stroke-miterlimit:4;stroke-dasharray:none"
         id="path3000"
         inkscape:connector-curvature="0" />
      <path
         d="m 244.86857,1007.9619 c 11.99999,0 14.688,-4.832 15.488,-6.528 0.032,-0.096 -0.032,-0.384 -0.32,-0.384 l -7.52,0 c -0.096,0 -0.224,0.064 -0.352,0.16 -1.536,1.568 -3.904,1.888 -6.72,1.888 l -3.168,0 c -3.072,0 -6.432,-0.832 -6.688,-3.35999 l 24.384,0 c 0.512,0 0.704,-0.096 0.704,-0.256 l 0,-0.576 c 0,-5.24799 -9.98401,-8.16 -16.928,-8.16 l -6.08,0 c -1.664,0 -16.96,0.41601 -16.96,8.576 0,8.12799 14.40001,8.63999 20.64,8.63999 l 3.52,0 m -8.864,-10.91199 c 0.672,-1.02399 1.66401,-2.016 5.408,-2.016 2.88,0 4.128,1.05601 4.8,2.016 l -10.208,0"
         style="font-size:32px;font-style:normal;font-variant:normal;font-weight:900;font-stretch:normal;line-height:125%;letter-spacing:0px;word-spacing:0px;fill:#ff80b2;fill-opacity:1;stroke:#000000;stroke-width:0.77819005;font-family:Blackoak Std;-inkscape-font-specification:Blackoak Std Heavy;stroke-miterlimit:4;stroke-dasharray:none"
         id="path3002"
         inkscape:connector-curvature="0" />
    </g>
    <path
       style="font-size:32px;font-style:normal;font-variant:normal;font-weight:900;font-stretch:normal;line-height:125%;letter-spacing:0px;word-spacing:0px;fill:#ffffff;fill-opacity:1;stroke:none;filter:url(#filter4019);font-family:Blackoak Std;-inkscape-font-specification:Blackoak Std Heavy"
       d="m 82.473214,998.52291 c 0.106303,0.41375 0.15625,0.80493 0.15625,1.15625 l 0,3.53124 c 0.633102,0.7966 1.09375,1.7953 1.09375,3.25 l 0,2.375 c 0.876866,-1.3182 1.9147,-2.4468 2.90625,-3.2187 l 0,-1.9375 c 0,-1.2719 -0.717749,-3.1618 -2,-4.15629 -0.764595,-0.59301 -1.49441,-0.86588 -2.15625,-1 z m 47.531246,0 c 0.0643,0.31215 0.125,0.62709 0.125,0.96875 l 0,9.31254 c 0.872,-1.2995 1.89354,-2.4235 2.875,-3.1875 0.38852,-0.3025 0.7573,-0.57 1.125,-0.8125 l 0,-1.3125 c 0,-1.8826 -1.07663,-3.3432 -2.125,-4.09379 -0.66128,-0.47343 -1.34208,-0.73717 -2,-0.875 z m 72.9375,0 c 0.0584,0.30467 0.0937,0.62369 0.0937,0.96875 l 0,9.56254 c 0.69772,-1.1062 1.43291,-2.1952 2.34375,-2.9375 0.53334,-0.4347 1.09634,-0.8118 1.65625,-1.1563 l 0,-1.4687 c 0,-2.1942 -1.30782,-3.56264 -2.3125,-4.21879 -0.60072,-0.39232 -1.19238,-0.62365 -1.78125,-0.75 z m -26.4375,9.46879 0,5.1562 0.8125,0 c 0.56332,0 1.14617,0.1922 1.71875,0.4688 0.18563,-0.027 0.38643,-0.1563 0.5625,-0.1563 l 0.46875,0 0,-4.5625 -0.625,0 c -0.72222,0 -1.47954,-0.055 -2.53125,-0.5625 -0.11579,-0.056 -0.27493,-0.2603 -0.40625,-0.3437 z m 72.90625,1.5 c 0.80245,1.3528 1.34375,2.9579 1.34375,4.6875 l 0,0.5937 c 0,0.5355 -0.12568,1.1375 -0.34375,1.7188 -0.004,0.4863 0.0117,0.9336 -0.25,1.7187 a 4.7872795,4.7872795 0 0 1 -0.1875,0.5313 c -0.22224,0.4711 -0.69425,1.2063 -1.34375,2.0312 0.57739,-0.1997 1.14998,-0.4659 1.71875,-0.625 1.52741,-0.4271 2.99089,-0.6989 4.34375,-0.9062 0.0188,-0.1576 0.0625,-0.3197 0.0625,-0.4688 l 0,-0.5937 c 0,-2.8312 -1.44214,-5.3106 -3.125,-6.9375 -0.69902,-0.6758 -1.44029,-1.2451 -2.21875,-1.75 z m -246.5937457,0.25 c 0.224985,0.9116 0.715017,1.8163 1.25,2.4375 0.093622,0 0.192957,0 0.28125,0 l 2.21875,0 0,-2.2813 -2.125,0 c -0.249119,0 -0.743992,0.05 -1.625,-0.1562 z m 238.3437457,16.375 c -0.10619,0.044 -0.23539,0.083 -0.34375,0.125 l 0,0.3125 c 0.10303,-0.1632 0.23412,-0.2812 0.34375,-0.4375 z m -26.875,0.875 0,3.6562 0.8125,0 c 0.56799,0 1.14184,0.2194 1.71875,0.5 0.18527,-0.028 0.38863,-0.1875 0.5625,-0.1875 l 0.46875,0 0,-3.5 c -1.20468,-0.1332 -2.32239,-0.2051 -3.5625,-0.4687 z m 72.90625,0 c 0.80245,1.3528 1.34375,2.9579 1.34375,4.6875 l 0,0.5937 c 0,0.4876 -0.10939,1.078 -0.3125,1.6563 0.003,0.4966 0.021,0.9681 -0.25,1.7812 a 4.7872795,4.7872795 0 0 1 -0.1875,0.5313 c -0.53764,1.1397 -2.13893,3.9359 -5.34375,5.9375 -3.20482,2.0015 -7.85708,3.3437 -14.5,3.3437 l -3.5,0 c -3.24708,0 -8.68668,-0.057 -13.875,-1.4062 -1.53263,-0.3987 -3.03138,-0.9888 -4.5,-1.7188 -0.26334,0.5458 -0.54493,1.1026 -1.03125,1.5625 -1.19332,1.1285 -2.77545,1.5 -3.9375,1.5 l -23.625,0 c -0.48942,0 -0.94813,-0.105 -1.40625,-0.2187 -0.35104,0.076 -0.73185,0.2187 -1.03125,0.2187 l -18.84375,0 c -1.1426,0 -2.02103,-0.3569 -2.84375,-0.9062 -1.77408,0.5261 -3.85702,0.9687 -6.40625,0.9687 -4.44112,0 -8.9987,-0.7621 -12.96875,-2.6562 -0.25751,-0.1229 -0.49385,-0.3304 -0.75,-0.4688 -0.20656,0.4843 -0.39836,0.9876 -0.8125,1.4375 -1.03249,1.1217 -2.64636,1.625 -3.75,1.625 l -18.84375,0 c -1.1426,0 -2.02103,-0.3569 -2.84375,-0.9062 -1.77408,0.5261 -3.85702,0.9687 -6.40625,0.9687 -4.44112,0 -8.9987,-0.7621 -12.96875,-2.6562 -1.01762,-0.4856 -2.02147,-1.1208 -2.96875,-1.8438 -0.5735,0.7047 -1.22933,1.3062 -1.90625,1.8125 -2.62323,1.9622 -5.50346,2.625 -8.09375,2.625 l -8.9375,0 c -2.54123,0 -4.71882,-0.67 -6.499996,-1.75 -0.9455,0.3737 -1.91168,0.697 -2.78125,0.9375 -2.24859,0.6218 -3.79761,0.875 -5.5,0.875 -2.08404,0 -5.632722,-0.028 -9.1875,-0.875 -1.31228,-0.3126 -2.645057,-0.7247 -3.96875,-1.4375 0.659807,1.3076 1.616302,2.4066 2.59375,3.125 1.770504,1.3014 3.597611,1.8891 5.375,2.3125 3.554778,0.8468 7.10346,0.875 9.1875,0.875 1.70239,0 3.25141,-0.2532 5.499996,-0.875 0.86957,-0.2405 1.83575,-0.5638 2.78125,-0.9375 1.78118,1.08 3.95877,1.75 6.5,1.75 l 8.9375,0 c 2.59029,0 5.47052,-0.6628 8.09375,-2.625 0.67692,-0.5063 1.33275,-1.1078 1.90625,-1.8125 0.94728,0.723 1.95113,1.3582 2.96875,1.8438 3.97005,1.8941 8.52763,2.6562 12.96875,2.6562 2.54923,0 4.63217,-0.4426 6.40625,-0.9687 0.82272,0.5493 1.70115,0.9062 2.84375,0.9062 l 18.84375,0 c 1.10364,0 2.71751,-0.5033 3.75,-1.625 0.41414,-0.4499 0.60594,-0.9532 0.8125,-1.4375 0.25615,0.1384 0.49249,0.3459 0.75,0.4688 3.97005,1.8941 8.52763,2.6562 12.96875,2.6562 2.54923,0 4.63217,-0.4426 6.40625,-0.9687 0.82272,0.5493 1.70115,0.9062 2.84375,0.9062 l 18.84375,0 c 0.2994,0 0.68021,-0.1423 1.03125,-0.2187 0.45812,0.1137 0.91683,0.2187 1.40625,0.2187 l 23.625,0 c 1.16205,0 2.74418,-0.3715 3.9375,-1.5 0.48632,-0.4599 0.76791,-1.0167 1.03125,-1.5625 1.46862,0.73 2.96737,1.3201 4.5,1.7188 5.18832,1.3494 10.62792,1.4062 13.875,1.4062 l 3.5,0 c 6.64292,0 11.29518,-1.3422 14.5,-3.3437 3.20482,-2.0016 4.80611,-4.7977 5.34375,-5.9375 a 4.7872795,4.7872795 0 0 0 0.1875,-0.5313 c 0.27103,-0.8131 0.25342,-1.2846 0.25,-1.7812 0.20311,-0.5783 0.3125,-1.1686 0.3125,-1.6563 l 0,-0.5937 c 0,-2.8312 -1.44214,-5.3106 -3.125,-6.9375 -0.69902,-0.6758 -1.44029,-1.2451 -2.21875,-1.75 z m -284.2187457,0.875 c 0.135023,0.665 0.399066,1.4277 0.9375,2.125 0.840798,1.0888 2.06933,1.632 2.8125,1.8125 1.48634,0.3609 1.759017,0.1562 1.5625,0.1562 l 9.4374997,0 c 0.313897,-0.4717 0.69829,-0.9057 1.125,-1.2187 1.286444,-0.9437 2.478661,-1.0625 3.34375,-1.0625 l 2.21875,0 0,-1.7188 -20.1249997,0 c 0.182848,0 -0.083282,0.1723 -1.3125,-0.094 z m 114.9062457,0.094 c 0.0209,0.1253 0.0469,0.2498 0.0625,0.375 0.1833,-0.023 0.34396,-0.125 0.53125,-0.125 l 2.0625,0 c 0.0343,-0.083 0.0576,-0.169 0.0937,-0.25 l -2.75,0 z m -56.562496,2.9375 0,0.1875 c 0,1.3676 -0.774857,2.8809 -1.5625,3.625 -0.699708,0.661 -1.249384,0.8663 -1.71875,1.0313 l 0,4.7812 c 0,1.3971 -1.043113,3.2837 -2.0625,4 -1.019387,0.7163 -1.698577,0.805 -2.125,0.875 -0.852845,0.139 -1.07379,0.062 -1.25,0.062 l -30.46875,0 c 0.178566,0 -0.06716,0.1736 -1.28125,-0.094 0.115296,0.6034 0.327332,1.2856 0.8125,1.9687 0.784196,1.1041 2.058937,1.7654 2.84375,1.9688 1.569625,0.4067 1.821517,0.1562 1.625,0.1562 l 30.46875,0 c 0.17621,0 0.397155,0.078 1.25,-0.062 0.426423,-0.07 1.105613,-0.1587 2.125,-0.875 1.019387,-0.7163 2.0625,-2.6029 2.0625,-4 l 0,-4.7812 c 0.469366,-0.165 1.019042,-0.3702 1.71875,-1.0313 0.787643,-0.7441 1.5625,-2.2574 1.5625,-3.625 l 0,-0.1875 c 0.627146,0.4937 1.285244,0.8977 1.78125,1.0313 1.759507,0.4738 1.778928,0.1562 1.78125,0.1562 l 4.03125,0 c -0.0069,-0.1251 -0.03125,-0.2489 -0.03125,-0.375 0,-1.332 0.387616,-2.5506 0.96875,-3.625 l -8.96875,0 c -0.0023,0 -0.02174,0.3175 -1.78125,-0.1562 -0.496006,-0.1336 -1.154104,-0.5376 -1.78125,-1.0313 z m 52.249996,1.5313 c -0.11615,0.223 -0.14025,0.3252 -0.15625,0.4062 -0.0159,0.081 -0.0312,-0.3267 -0.0312,0.4688 0,-0.299 0.1262,-0.5809 0.1875,-0.875 z"
       id="path3982"
       inkscape:connector-curvature="0"
       transform="matrix(0.64445815,0,0,0.64058083,3.9425308,372.86056)"
       mask="url(#mask4067)" />
    <g
       id="g3028"
       transform="matrix(0.64445815,0,0,0.64058083,8.5458034,370.80155)"
       style="fill:#ff80b2;stroke:#000000;stroke-width:0.77819005;stroke-miterlimit:4;stroke-dasharray:none">
      <path
         d="m 19.214572,1023.8979 c -0.544,0 -1.024,0.16 -1.024,0.64 l 0,4.896 c 0,0.384 0.64,0.384 0.96,0.384 l 6.912,0 0,11.872 -7.008,0 c -0.448,0 -0.704,0.16 -0.704,0.48 l 0,5.408 c 0,0.384 0.32,0.32 0.64,0.32 l 30.464,0 c 0.383999,0 0.672,0 0.672,-0.16 l 0,-5.312 c 0,-0.32 -0.128001,-0.448 -0.384,-0.448 l -7.072,0 0,-3.392 10.08,0 c 0.287999,0 0.64,-0.064 0.64,-0.288 l 0,-4.32 c 0,-0.48 -0.224001,-0.704 -0.64,-0.704 l -10.24,0 0,-3.648 18.528,0 0,4.576 c 0,0.384 0.224,0.32 0.704,0.32 l 10.72,0 c 0.479999,0 0.48,-0.48 0.48,-0.8 l 0,-8.704 c 0,-0.896 -0.416001,-1.12 -1.184,-1.12 l -52.544,0"
         style="font-size:32px;font-style:normal;font-variant:normal;font-weight:900;font-stretch:normal;line-height:125%;letter-spacing:0px;word-spacing:0px;fill:#ff80b2;fill-opacity:1;stroke:#000000;stroke-width:0.77819005;font-family:Blackoak Std;-inkscape-font-specification:Blackoak Std Heavy;stroke-miterlimit:4;stroke-dasharray:none"
         id="path3004"
         inkscape:connector-curvature="0" />
      <path
         d="m 110.23307,1036.6019 c 0,-5.248 -7.00801,-5.856 -18.623998,-5.856 -10.27199,0 -16.864,0.448 -16.864,4 0,2.368 3.296001,2.976 4.448,2.976 1.279998,0 4.928001,-0.864 5.76,-1.216 0.767999,-0.32 2.880001,-1.696 4.384,-1.696 l 4,0 c 1.375998,0 3.04,0.416 3.04,1.472 0,0.896 -3.072002,1.28 -4.576,1.28 l -5.472,0 c -1.439999,0 -11.808,0.672 -11.808,5.376 0,4.672 9.376004,5.024 13.248,5.024 1.279998,0 7.072001,-0.864 8.672,-3.168 0.863999,1.44 3.104003,3.104 6.111998,3.104 l 8.928,0 c 3.328,0 7.968,-1.952 7.968,-7.52 0,-0.096 -0.064,-0.16 -0.128,-0.16 l -4,0 c -0.192,0 -0.288,0.128 -0.288,0.288 0,0.128 -0.16,2.56 -2.496,2.56 -1.92,0 -2.304,-1.568 -2.304,-1.728 l 0,-4.736 m -13.919998,3.264 c 0,2.56 -2.464003,3.328 -5.184,3.328 -0.512,0 -1.92,-0.064 -1.92,-0.768 0,-1.216 1.824002,-1.44 4.128,-1.952 1.407998,-0.32 2.56,-1.408 2.912,-1.92 l 0.064,0 0,1.312"
         style="font-size:32px;font-style:normal;font-variant:normal;font-weight:900;font-stretch:normal;line-height:125%;letter-spacing:0px;word-spacing:0px;fill:#ff80b2;fill-opacity:1;stroke:#000000;stroke-width:0.77819005;font-family:Blackoak Std;-inkscape-font-specification:Blackoak Std Heavy;stroke-miterlimit:4;stroke-dasharray:none"
         id="path3006"
         inkscape:connector-curvature="0" />
      <path
         d="m 146.35757,1034.0739 c -1.696,-1.44 -5.536,-3.328 -9.6,-3.328 -5.08799,0 -7.648,0.928 -8.8,1.344 -1.152,0.384 -6.624,2.656 -6.624,7.104 0,5.792 8.44801,8.768 16.096,8.768 5.024,0 7.84,-1.728 8.736,-2.368 l 0,1.824 c 0,0.288 0.288,0.48 0.512,0.48 l 18.848,0 c 0.192,0 0.288,-0.128 0.288,-0.288 l 0,-4.48 c 0,-0.32 -0.064,-0.48 -0.224,-0.48 l -5.6,0 0,-18.432 c 0,-0.16 -0.16,-0.32 -0.448,-0.32 l -18.784,0 c -0.32,0 -0.512,0.192 -0.512,0.608 l 0,4 c 0,0.192 0.224,0.32 0.576,0.32 l 5.536,0 0,5.248 m -5.12,1.696 c 2.208,0 5.12,0.992 5.12,3.616 0,2.4 -2.24,3.36 -4.704,3.36 -2.24,0 -4.896,-0.8 -4.896,-3.36 0,-1.888 2.08,-3.616 4.48,-3.616"
         style="font-size:32px;font-style:normal;font-variant:normal;font-weight:900;font-stretch:normal;line-height:125%;letter-spacing:0px;word-spacing:0px;fill:#ff80b2;fill-opacity:1;stroke:#000000;stroke-width:0.77819005;font-family:Blackoak Std;-inkscape-font-specification:Blackoak Std Heavy;stroke-miterlimit:4;stroke-dasharray:none"
         id="path3008"
         inkscape:connector-curvature="0" />
      <path
         d="m 192.73257,1034.0739 c -1.696,-1.44 -5.536,-3.328 -9.6,-3.328 -5.08799,0 -7.648,0.928 -8.8,1.344 -1.152,0.384 -6.624,2.656 -6.624,7.104 0,5.792 8.44801,8.768 16.096,8.768 5.024,0 7.84,-1.728 8.736,-2.368 l 0,1.824 c 0,0.288 0.288,0.48 0.512,0.48 l 18.848,0 c 0.192,0 0.288,-0.128 0.288,-0.288 l 0,-4.48 c 0,-0.32 -0.064,-0.48 -0.224,-0.48 l -5.6,0 0,-18.432 c 0,-0.16 -0.16,-0.32 -0.448,-0.32 l -18.784,0 c -0.32,0 -0.512,0.192 -0.512,0.608 l 0,4 c 0,0.192 0.224,0.32 0.576,0.32 l 5.536,0 0,5.248 m -5.12,1.696 c 2.208,0 5.12,0.992 5.12,3.616 0,2.4 -2.24,3.36 -4.704,3.36 -2.24,0 -4.896,-0.8 -4.896,-3.36 0,-1.888 2.08,-3.616 4.48,-3.616"
         style="font-size:32px;font-style:normal;font-variant:normal;font-weight:900;font-stretch:normal;line-height:125%;letter-spacing:0px;word-spacing:0px;fill:#ff80b2;fill-opacity:1;stroke:#000000;stroke-width:0.77819005;font-family:Blackoak Std;-inkscape-font-specification:Blackoak Std Heavy;stroke-miterlimit:4;stroke-dasharray:none"
         id="path3010"
         inkscape:connector-curvature="0" />
      <path
         d="m 232.89957,1042.9699 0,-18.752 c 0,-0.16 -0.192,-0.32 -0.48,-0.32 l -18.4,0 c -0.288,0 -0.544,0.192 -0.544,0.608 l 0,4 c 0,0.192 0.256,0.32 0.608,0.32 l 5.408,0 0,14.144 -5.248,0 c -0.576,0 -0.672,0.48 -0.672,0.8 l 0,3.424 c 0,0.48 0.448,0.704 0.768,0.704 l 23.616,0 c 0.64,0 0.8,-0.352 0.8,-0.608 l 0,-3.776 c 0,-0.32 -0.128,-0.544 -0.512,-0.544 l -5.344,0"
         style="font-size:32px;font-style:normal;font-variant:normal;font-weight:900;font-stretch:normal;line-height:125%;letter-spacing:0px;word-spacing:0px;fill:#ff80b2;fill-opacity:1;stroke:#000000;stroke-width:0.77819005;font-family:Blackoak Std;-inkscape-font-specification:Blackoak Std Heavy;stroke-miterlimit:4;stroke-dasharray:none"
         id="path3012"
         inkscape:connector-curvature="0" />
      <path
         d="m 264.80607,1047.9619 c 11.99999,0 14.688,-4.832 15.488,-6.528 0.032,-0.096 -0.032,-0.384 -0.32,-0.384 l -7.52,0 c -0.096,0 -0.224,0.064 -0.352,0.16 -1.536,1.568 -3.904,1.888 -6.72,1.888 l -3.168,0 c -3.072,0 -6.432,-0.832 -6.688,-3.36 l 24.384,0 c 0.512,0 0.704,-0.096 0.704,-0.256 l 0,-0.576 c 0,-5.248 -9.98401,-8.16 -16.928,-8.16 l -6.08,0 c -1.664,0 -16.96,0.416 -16.96,8.576 0,8.128 14.40001,8.64 20.64,8.64 l 3.52,0 m -8.864,-10.912 c 0.672,-1.024 1.66401,-2.016 5.408,-2.016 2.88,0 4.128,1.056 4.8,2.016 l -10.208,0"
         style="font-size:32px;font-style:normal;font-variant:normal;font-weight:900;font-stretch:normal;line-height:125%;letter-spacing:0px;word-spacing:0px;fill:#ff80b2;fill-opacity:1;stroke:#000000;stroke-width:0.77819005;font-family:Blackoak Std;-inkscape-font-specification:Blackoak Std Heavy;stroke-miterlimit:4;stroke-dasharray:none"
         id="path3014"
         inkscape:connector-curvature="0" />
    </g>
  </g>
</svg>
